M48
; DRILL file {KiCad 9.0.3} date 2026-07-09T20:51:53-0700
; FORMAT={-:-/ absolute / metric / decimal}
; #@! TF.CreationDate,2026-07-09T20:51:53-07:00
; #@! TF.GenerationSoftware,Kicad,Pcbnew,9.0.3
; #@! TF.FileFunction,MixedPlating,1,2
FMAT,2
METRIC
; #@! TA.AperFunction,Plated,PTH,ViaDrill
T1C0.300
; #@! TA.AperFunction,Plated,PTH,ViaDrill
T2C0.400
; #@! TA.AperFunction,Plated,PTH,ComponentDrill
T3C0.600
; #@! TA.AperFunction,Plated,PTH,ComponentDrill
T4C0.700
; #@! TA.AperFunction,Plated,PTH,ComponentDrill
T5C0.800
; #@! TA.AperFunction,Plated,PTH,ComponentDrill
T6C1.000
; #@! TA.AperFunction,Plated,PTH,ComponentDrill
T7C1.100
; #@! TA.AperFunction,Plated,PTH,ComponentDrill
T8C1.200
; #@! TA.AperFunction,Plated,PTH,ComponentDrill
T9C1.300
; #@! TA.AperFunction,Plated,PTH,ComponentDrill
T10C1.500
; #@! TA.AperFunction,Plated,PTH,ComponentDrill
T11C1.600
; #@! TA.AperFunction,Plated,PTH,ComponentDrill
T12C1.981
; #@! TA.AperFunction,Plated,PTH,ComponentDrill
T13C2.000
; #@! TA.AperFunction,Plated,PTH,ComponentDrill
T14C2.591
; #@! TA.AperFunction,Plated,PTH,ComponentDrill
T15C4.300
; #@! TA.AperFunction,NonPlated,NPTH,ComponentDrill
T16C0.800
%
G90
G05
T1
X59.482Y-107.5
X59.5Y-89.0
X67.0Y-95.5
X67.0Y-103.25
X73.5Y-110.0
X76.0Y-77.0
X77.0Y-133.0
X78.75Y-115.0
X78.75Y-125.5
X79.0Y-86.5
X82.5Y-122.75
X83.0Y-110.25
X83.75Y-114.75
X84.0Y-91.0
X85.0Y-87.05
X85.5Y-83.027
X86.75Y-94.0
X87.0Y-111.5
X87.0Y-133.0
X90.5Y-92.5
X91.5Y-89.25
X95.0Y-83.0
X95.0Y-105.0
X95.5Y-91.0
X96.0Y-133.0
X97.791Y-109.028
X101.5Y-117.0
X105.0Y-83.0
X105.5Y-133.0
X105.7Y-109.8
X108.5Y-102.25
X108.75Y-118.75
X109.25Y-94.75
X112.0Y-109.5
X112.0Y-117.5
X114.75Y-124.5
X115.0Y-83.0
X117.5Y-109.5
X117.7Y-117.3
X121.25Y-98.5
X122.0Y-91.5
X122.75Y-112.75
X125.0Y-133.0
X126.25Y-115.25
X127.75Y-98.5
X130.0Y-83.0
X135.0Y-133.0
X137.1Y-88.6
X137.1Y-92.3
X140.0Y-83.0
X141.2Y-88.6
X141.2Y-93.5
X143.0Y-133.0
X210.2Y-133.0
X220.0Y-133.0
X225.5Y-77.0
X226.0Y-90.5
X230.0Y-133.0
X237.5Y-85.0
X237.5Y-95.0
X237.5Y-105.0
X237.5Y-115.0
X237.5Y-125.0
T2
X132.0Y-105.0
X132.05Y-94.65
X132.2Y-97.6
X133.0Y-95.095
X133.2Y-97.635
X136.5Y-94.9
X137.0Y-105.0
X137.0Y-110.0
X137.4Y-95.0
X137.4Y-95.8
X140.5Y-115.0
X140.9Y-95.095
X141.25Y-119.0
X141.25Y-128.25
X141.48Y-123.0
X141.8Y-95.095
X145.5Y-90.0
X145.5Y-100.0
X145.5Y-105.0
X146.5Y-83.0
X146.5Y-95.0
X146.5Y-110.0
X146.5Y-119.0
X146.5Y-125.0
X147.0Y-115.0
X147.0Y-129.5
X148.5Y-83.0
X150.0Y-100.0
X150.0Y-106.5
X150.5Y-87.5
X150.5Y-112.5
X151.5Y-118.5
X153.5Y-94.5
X153.5Y-129.5
X155.5Y-107.0
X157.0Y-118.0
X158.0Y-115.5
X159.5Y-125.5
X159.5Y-126.5
X159.5Y-127.5
X159.5Y-128.5
X159.5Y-129.5
X160.0Y-92.0
X160.0Y-103.0
X161.0Y-96.5
X161.0Y-97.5
X161.0Y-109.0
X161.0Y-110.0
X161.5Y-124.25
X161.75Y-82.8
X161.75Y-86.2
X162.0Y-95.5
X162.25Y-108.0
X162.75Y-82.8
X162.75Y-86.2
X163.0Y-95.5
X163.0Y-124.25
X163.25Y-108.0
X163.75Y-82.8
X163.75Y-86.2
X164.0Y-95.5
X164.25Y-108.0
X164.5Y-92.0
X164.5Y-124.25
X164.5Y-125.5
X164.5Y-126.5
X164.5Y-127.5
X165.5Y-103.0
X166.0Y-95.5
X166.0Y-96.5
X166.0Y-97.5
X166.0Y-108.0
X166.0Y-109.0
X166.0Y-110.0
X166.25Y-83.5
X166.25Y-84.5
X166.25Y-85.5
X170.0Y-124.985
X170.0Y-132.5
X171.9Y-82.8
X172.0Y-89.2
X173.0Y-98.5
X174.0Y-112.5
X175.0Y-125.0
X175.0Y-132.0
X177.0Y-112.5
X177.75Y-115.0
X178.5Y-128.0
X182.0Y-107.0
X186.0Y-128.5
X189.964Y-124.5
X190.0Y-132.5
X196.25Y-110.0
X197.0Y-107.5
X197.0Y-112.5
X199.5Y-113.25
X200.0Y-125.0
X200.0Y-132.0
X202.0Y-107.5
X202.0Y-112.5
X202.5Y-128.5
X202.75Y-110.0
X223.25Y-110.0
X224.0Y-107.5
X224.0Y-112.5
X226.5Y-113.25
X229.0Y-107.5
X229.0Y-112.5
X229.75Y-110.0
T3
X61.55Y-127.5
X61.775Y-82.475
X62.495Y-125.22
X62.495Y-129.78
X62.72Y-80.195
X62.72Y-84.755
X64.775Y-124.275
X64.775Y-130.725
X65.0Y-79.25
X65.0Y-85.7
X67.055Y-125.22
X67.055Y-129.78
X67.28Y-80.195
X67.28Y-84.755
X68.0Y-127.5
X68.225Y-82.475
X228.8Y-82.5
X228.8Y-127.5
X229.745Y-80.22
X229.745Y-84.78
X229.745Y-125.22
X229.745Y-129.78
X232.025Y-79.275
X232.025Y-85.725
X232.025Y-124.275
X232.025Y-130.725
X234.305Y-80.22
X234.305Y-84.78
X234.305Y-125.22
X234.305Y-129.78
X235.25Y-82.5
X235.25Y-127.5
T4
X123.0Y-108.0
T5
X85.5Y-113.19
X85.5Y-120.81
X89.84Y-120.5
X92.38Y-115.5
X97.42Y-90.5
X97.42Y-94.0
X100.0Y-115.5
X100.0Y-120.5
X102.38Y-120.5
X107.58Y-90.5
X107.58Y-94.0
X109.5Y-111.0
X110.0Y-120.5
X111.0Y-93.5
X114.0Y-86.0
X114.38Y-114.88
X114.38Y-117.42
X114.38Y-119.96
X114.38Y-122.5
X114.5Y-111.0
X116.0Y-93.5
X116.5Y-127.5
X116.5Y-132.5
X119.0Y-86.0
X122.0Y-114.88
X122.0Y-117.42
X122.0Y-119.96
X122.0Y-122.5
X122.8Y-126.0
X122.8Y-131.0
X123.0Y-86.0
X123.5Y-93.42
X123.5Y-103.58
X125.5Y-86.0
X127.0Y-93.42
X127.0Y-103.58
X127.5Y-117.09
X127.5Y-119.63
X127.5Y-122.17
X129.8Y-106.2
X139.96Y-106.2
X186.25Y-99.92
X186.25Y-110.08
X213.0Y-99.92
X213.0Y-110.08
T6
X72.5Y-127.225
X72.5Y-129.765
X77.66Y-89.2
X80.2Y-89.2
X80.55Y-127.975
X83.05Y-127.975
X89.8Y-128.0
X92.3Y-128.0
X99.3Y-128.0
X101.8Y-128.0
X108.8Y-128.0
X110.632Y-104.0
X111.3Y-128.0
X115.632Y-104.0
X119.5Y-92.0
X119.5Y-94.54
X170.0Y-127.735
X170.0Y-130.275
T7
X86.3Y-90.7
X88.0Y-87.0
X89.7Y-90.7
X91.4Y-87.0
X93.1Y-90.7
X104.42Y-86.0
X106.96Y-86.0
X109.5Y-86.0
X129.92Y-110.8
X133.72Y-115.8
X140.08Y-110.8
X143.88Y-115.8
X153.5Y-84.42
X153.5Y-86.96
X153.5Y-89.5
X153.5Y-96.92
X153.5Y-99.46
X153.5Y-102.0
X153.5Y-109.5
X153.5Y-112.04
X153.5Y-114.58
X153.5Y-121.92
X153.5Y-127.0
X197.6Y-128.6
T8
X78.5Y-99.5
X83.5Y-99.5
X175.0Y-128.5
X175.5Y-91.75
X175.5Y-114.25
X190.0Y-128.5
T9
X70.0Y-112.92
X70.0Y-118.0
T10
X98.19Y-104.0
X105.81Y-104.0
T11
X91.0Y-95.38
X91.0Y-110.62
T12
X210.8Y-82.4
X210.8Y-89.4
X210.8Y-120.0
X210.8Y-127.0
X215.8Y-82.4
X215.8Y-89.4
X215.8Y-120.0
X215.8Y-127.0
X220.8Y-82.4
X220.8Y-89.4
X220.8Y-120.0
X220.8Y-127.0
T13
X199.5Y-100.0
X199.5Y-110.0
X226.5Y-100.0
X226.5Y-110.0
T14
X63.5Y-91.356
X63.5Y-96.436
X63.5Y-100.5
X63.5Y-105.58
T15
X64.775Y-127.5
X65.0Y-82.475
X232.025Y-82.5
X232.025Y-127.5
T16
X127.5Y-127.25
X130.04Y-127.25
M30
